<svg viewBox="0 0 32 32" fill="none" xmlns="http://www.w3.org/2000/svg">
  <!-- Outer circle with gradient -->
  <defs>
    <linearGradient id="grad" x1="0%" y1="0%" x2="100%" y2="100%">
      <stop offset="0%" style="stop-color:#3b82f6;stop-opacity:1" />
      <stop offset="100%" style="stop-color:#2563eb;stop-opacity:1" />
    </linearGradient>
  </defs>
  <circle cx="16" cy="16" r="16" fill="url(#grad)" />

  <!-- Letter S shape -->
  <path
    d="M16 8C12.6863 8 10 10.6863 10 14C10 15.6569 10.8954 17.1046 12.2426 17.8787C11.4696 18.6517 11 19.7565 11 21C11 23.7614 13.2386 26 16 26C18.7614 26 21 23.7614 21 21C21 19.3431 20.1046 17.8954 18.7574 17.1213C19.5304 16.3483 20 15.2435 20 14C20 10.6863 17.3137 8 16 8Z"
    fill="white"
  />

  <!-- Inner detail -->
  <circle cx="16" cy="14" r="3" fill="url(#grad)" />
  <circle cx="16" cy="21" r="3" fill="url(#grad)" />
</svg>
